STARTFONT 2.1
FONT -Monotype-Book Antiqua-Bold-R-Normal--33-240-100-100-P-163-iso8859-9
SIZE 24 100 100
FONTBOUNDINGBOX 38 40 -4 -9

STARTPROPERTIES 24
FOUNDRY "Monotype"
FAMILY_NAME "Book Antiqua"
WEIGHT_NAME "Bold"
SLANT "R"
SETWIDTH_NAME "Normal"
ADD_STYLE_NAME ""
PIXEL_SIZE 33
POINT_SIZE 240
RESOLUTION_X 100
RESOLUTION_Y 100
SPACING "P"
AVERAGE_WIDTH 163
CHARSET_REGISTRY "iso8859"
CHARSET_ENCODING "9"
FACE_NAME "Book Antiqua Bold ISO Latin5"
_DEC_DEVICE_FONTNAMES "PS=bookantiqua-b-lat5"
COPYRIGHT "Copyright (c) 1993 Monotype Typography Ltd."
CAP_HEIGHT 27
X_HEIGHT 18
WEIGHT 10
QUAD_WIDTH 20
DEFAULT_CHAR 160
FONT_DESCENT 9
FONT_ASCENT 31
ENDPROPERTIES

CHARS 191

STARTCHAR space
ENCODING 32
SWIDTH 250 0
DWIDTH 8 0
BBX 0 0 0 0
BITMAP
ENDCHAR

STARTCHAR exclam
ENCODING 33
SWIDTH 278 0
DWIDTH 9 0
BBX 5 23 2 0
BITMAP
18
F8
F8
F8
F8
F8
78
70
70
70
70
70
70
70
20
20
00
00
70
F8
F8
F8
70
ENDCHAR

STARTCHAR quotedbl
ENCODING 34
SWIDTH 402 0
DWIDTH 13 0
BBX 12 11 1 12
BITMAP
70E0
F9F0
F9F0
F9F0
F9F0
70E0
70E0
70E0
70E0
2040
2040
ENDCHAR

STARTCHAR numbersign
ENCODING 35
SWIDTH 606 0
DWIDTH 20 0
BBX 18 23 1 0
BITMAP
030600
030600
070600
070E00
070E00
070E00
060E00
7FFFC0
77FFC0
0E0C00
0E1C00
0E1C00
0E1C00
0C1C00
FFFF80
FFFF80
1C1800
1C3800
1C3800
183800
183000
183000
383000
ENDCHAR

STARTCHAR dollar
ENCODING 36
SWIDTH 500 0
DWIDTH 17 0
BBX 15 28 1 -3
BITMAP
0300
0300
0380
1FFC
3F78
7318
E308
E308
E300
F300
FB00
FF80
7FF0
7FFC
1FFC
03FE
033E
031E
031E
C31C
C31C
C31C
E378
FFF0
3FC0
0300
0300
0300
ENDCHAR

STARTCHAR percent
ENCODING 37
SWIDTH 889 0
DWIDTH 29 0
BBX 27 25 1 -1
BITMAP
00003000
1F003000
73806000
61806000
61C0C000
E1C0C000
E1C18000
E1C18000
E1C10000
E1C30000
E1C20F80
E18619C0
718431C0
730C30E0
3E0870E0
001870E0
001870E0
003070E0
003070E0
006070E0
006070C0
00C038C0
00C039C0
01801F00
01800000
ENDCHAR

STARTCHAR ampersand
ENCODING 38
SWIDTH 833 0
DWIDTH 27 0
BBX 25 23 2 0
BITMAP
00F00000
01F80000
033C0000
061C0000
0E1C0000
0E180000
0E380000
0F700000
0F600000
07800000
0787FF00
1FC7FF00
3BE0E000
71E0E000
F0F0E000
F0F8C000
F07CC000
F83F8000
F81F8000
7C07F180
7F1FFF00
3FF9FE00
0FE07C00
ENDCHAR

STARTCHAR quoteright
ENCODING 39
SWIDTH 278 0
DWIDTH 9 0
BBX 7 10 1 14
BITMAP
06
3E
3C
3C
38
78
70
60
E0
80
ENDCHAR

STARTCHAR parenleft
ENCODING 40
SWIDTH 333 0
DWIDTH 11 0
BBX 8 32 3 -8
BITMAP
03
06
0E
1C
1C
38
38
78
78
78
F0
F0
F0
F0
F0
F0
F0
F0
F0
F0
F0
F0
78
78
78
38
1C
1C
0C
06
03
01
ENDCHAR

STARTCHAR parenright
ENCODING 41
SWIDTH 333 0
DWIDTH 11 0
BBX 8 32 0 -8
BITMAP
C0
60
70
38
38
1C
1C
1E
1E
0F
0F
0F
0F
0F
0F
0F
0F
0F
0F
0F
0F
0F
0E
1E
1E
1C
1C
38
30
60
C0
40
ENDCHAR

STARTCHAR asterisk
ENCODING 42
SWIDTH 444 0
DWIDTH 15 0
BBX 12 12 1 11
BITMAP
0200
23C0
7380
F300
7B00
06F0
0FF0
FA30
7300
6380
2380
0300
ENDCHAR

STARTCHAR plus
ENCODING 43
SWIDTH 606 0
DWIDTH 20 0
BBX 17 17 1 3
BITMAP
01C000
01C000
01C000
01C000
01C000
01C000
01C000
FFFF80
FFFF80
FFFF80
01C000
01C000
01C000
01C000
01C000
01C000
01C000
ENDCHAR

STARTCHAR comma
ENCODING 44
SWIDTH 250 0
DWIDTH 8 0
BBX 7 11 0 -6
BITMAP
02
1E
3E
3C
3C
38
78
70
E0
E0
80
ENDCHAR

STARTCHAR minus
ENCODING 45
SWIDTH 606 0
DWIDTH 20 0
BBX 16 3 2 10
BITMAP
FFFF
FFFF
FFFF
ENDCHAR

STARTCHAR period
ENCODING 46
SWIDTH 250 0
DWIDTH 8 0
BBX 5 5 2 0
BITMAP
70
F8
F8
F8
70
ENDCHAR

STARTCHAR slash
ENCODING 47
SWIDTH 296 0
DWIDTH 10 0
BBX 16 30 -4 -7
BITMAP
000F
000E
001E
001C
003C
0038
0038
0078
0070
00F0
00E0
01E0
01E0
01C0
03C0
0380
0780
0700
0700
0F00
0E00
1E00
1C00
1C00
3C00
3800
7800
7000
F000
F000
ENDCHAR

STARTCHAR zero
ENCODING 48
SWIDTH 500 0
DWIDTH 17 0
BBX 15 23 1 0
BITMAP
07E0
1FF8
3C78
383C
783C
703E
F01E
F01E
F01E
F01E
F01E
F01E
F01E
F01E
F01E
F01E
F81C
F81C
783C
7838
3C78
1FF0
07C0
ENDCHAR

STARTCHAR one
ENCODING 49
SWIDTH 500 0
DWIDTH 17 0
BBX 14 23 0 0
BITMAP
0060
01E0
0FC0
7FC0
F3C0
C3C0
03C0
03C0
03C0
03C0
03C0
03C0
03C0
03C0
03C0
03C0
03C0
03C0
03C0
03C0
07C0
3FFC
3FFC
ENDCHAR

STARTCHAR two
ENCODING 50
SWIDTH 500 0
DWIDTH 17 0
BBX 15 23 1 0
BITMAP
0FC0
1FF0
7FF8
7FFC
70FC
607C
603C
403C
003C
003C
0078
0070
00E0
01E0
01C0
0380
0600
0C00
1800
3FFE
7FFE
FFFE
FFFE
ENDCHAR

STARTCHAR three
ENCODING 51
SWIDTH 500 0
DWIDTH 17 0
BBX 15 23 0 0
BITMAP
0FF0
1FF8
3FF8
38FC
303C
203C
203C
0038
0070
00C0
07F8
0FFC
00FE
003E
003E
001E
001E
C01C
401C
6038
7070
7FE0
3F00
ENDCHAR

STARTCHAR four
ENCODING 52
SWIDTH 500 0
DWIDTH 17 0
BBX 16 23 0 0
BITMAP
0018
00F8
01F8
01B8
0378
0678
0678
0C78
0878
1878
3078
30F8
60F8
40F8
FFFF
FFFF
FFFF
00F8
00F8
00F8
00F8
0FFF
0F8F
ENDCHAR

STARTCHAR five
ENCODING 53
SWIDTH 500 0
DWIDTH 17 0
BBX 15 23 0 0
BITMAP
3FFC
3FFC
3FFC
3FFC
3000
3000
3000
3000
37F0
3FF8
3FFC
38FE
203E
003E
001E
001E
001E
C01C
401C
6038
7870
7FE0
3F00
ENDCHAR

STARTCHAR six
ENCODING 54
SWIDTH 500 0
DWIDTH 17 0
BBX 14 23 1 0
BITMAP
0070
03F8
0780
0E00
1C00
3C00
3800
7800
7800
F1E0
F7F8
F7F8
F87C
F07C
F03C
F03C
F03C
F03C
7838
7838
3C70
1FE0
0780
ENDCHAR

STARTCHAR seven
ENCODING 55
SWIDTH 500 0
DWIDTH 17 0
BBX 16 22 1 1
BITMAP
FFFF
FFFF
FFFE
FFFC
C00C
C018
C018
C030
0030
0060
00E0
00C0
01C0
0180
0380
0300
0700
0F00
0E00
1E00
1C00
3C00
ENDCHAR

STARTCHAR eight
ENCODING 56
SWIDTH 500 0
DWIDTH 17 0
BBX 15 23 1 0
BITMAP
07E0
1FF0
3838
381C
701C
701C
781C
7C18
7F30
7FE0
3FF0
0FFC
3BFC
70FE
F03E
E01E
E01E
E01E
E01C
703C
7878
3FF0
0FC0
ENDCHAR

STARTCHAR nine
ENCODING 57
SWIDTH 500 0
DWIDTH 17 0
BBX 14 23 1 0
BITMAP
0780
1FE0
3870
7078
703C
F03C
F03C
F03C
F03C
F83C
F87C
7FDC
3FBC
1E3C
0078
0078
0078
00F0
00E0
01E0
03C0
7F00
3800
ENDCHAR

STARTCHAR colon
ENCODING 58
SWIDTH 250 0
DWIDTH 8 0
BBX 5 16 2 0
BITMAP
70
F8
F8
F8
70
00
00
00
00
00
00
70
F8
F8
F8
70
ENDCHAR

STARTCHAR semicolon
ENCODING 59
SWIDTH 250 0
DWIDTH 8 0
BBX 8 21 -1 -5
BITMAP
0E
1F
1F
1F
0E
00
00
00
00
00
00
03
1F
1E
1E
3C
38
38
70
70
C0
ENDCHAR

STARTCHAR less
ENCODING 60
SWIDTH 606 0
DWIDTH 20 0
BBX 16 18 2 2
BITMAP
0001
0007
003F
00FF
03F8
0FE0
3F80
FE00
F000
F800
7F00
1FC0
07F0
01FC
007F
001F
0003
0001
ENDCHAR

STARTCHAR equal
ENCODING 61
SWIDTH 606 0
DWIDTH 20 0
BBX 16 9 2 7
BITMAP
FFFF
FFFF
FFFF
0000
0000
0000
FFFF
FFFF
FFFF
ENDCHAR

STARTCHAR greater
ENCODING 62
SWIDTH 606 0
DWIDTH 20 0
BBX 16 18 2 2
BITMAP
8000
E000
F800
FF00
1FC0
07F0
01FC
007F
000F
003F
00FF
03F8
0FE0
3F80
FE00
F800
C000
8000
ENDCHAR

STARTCHAR question
ENCODING 63
SWIDTH 444 0
DWIDTH 15 0
BBX 12 23 1 0
BITMAP
3F80
7FE0
7FF0
C3F0
C1F0
80F0
00F0
01F0
03E0
03C0
0780
0E00
1C00
1800
1800
0800
0000
0000
1C00
3E00
3E00
3E00
1C00
ENDCHAR

STARTCHAR at
ENCODING 64
SWIDTH 747 0
DWIDTH 25 0
BBX 24 25 1 -2
BITMAP
007F80
01C060
060010
0C0008
180004
300004
601DC2
6075C2
40E382
C1C382
C1C782
83C782
838702
838F04
878F04
C79608
C7AE10
47CE61
438782
200002
300004
180008
0C0030
0381C0
007E00
ENDCHAR

STARTCHAR A
ENCODING 65
SWIDTH 778 0
DWIDTH 26 0
BBX 24 23 1 0
BITMAP
001800
003C00
003C00
007E00
007E00
007F00
00DF00
00DF00
018F80
018F80
0187C0
0307C0
0307C0
0603E0
07FFE0
07FFF0
0C01F0
0C01F8
1C00F8
1800FC
38007C
FF03FF
FF03FF
ENDCHAR

STARTCHAR B
ENCODING 66
SWIDTH 667 0
DWIDTH 22 0
BBX 19 23 1 0
BITMAP
FFFE00
FFFF80
1F0FC0
1F07C0
1F07C0
1F07C0
1F07C0
1F0780
1F0F00
1FF800
1FFE00
1F0FC0
1F07C0
1F03E0
1F03E0
1F03E0
1F03E0
1F03E0
1F03C0
1F07C0
1F0F80
3FFE00
3FF800
ENDCHAR

STARTCHAR C
ENCODING 67
SWIDTH 722 0
DWIDTH 24 0
BBX 22 23 1 0
BITMAP
007FC0
03FFF8
07C07C
1F0018
3E0018
3C0008
7C0008
780000
F80000
F80000
F80000
F80000
F80000
F80000
FC0000
7C0000
7C0000
3E0000
3F0000
1F8004
0FF038
03FFF0
00FFC0
ENDCHAR

STARTCHAR D
ENCODING 68
SWIDTH 833 0
DWIDTH 27 0
BBX 25 23 1 0
BITMAP
FFFFC000
FFFFF800
1F01FC00
1F007E00
1F003F00
1F001F00
1F001F80
1F000F80
1F000F80
1F000F80
1F000F80
1F000F80
1F000F80
1F000F80
1F000F00
1F001F00
1F001E00
1F003E00
1F003C00
1F007800
1F01F000
3FFFC000
7FFE0000
ENDCHAR

STARTCHAR E
ENCODING 69
SWIDTH 611 0
DWIDTH 20 0
BBX 18 23 1 0
BITMAP
FFFFC0
3FFFC0
1F00C0
1F00C0
1F00C0
1F0000
1F0000
1F0300
1F0300
1F0300
1FFF00
1FFF00
1F0300
1F0300
1F0300
1F0000
1F0000
1F0040
1F0040
1F00C0
1F00C0
3FFFC0
7FFFC0
ENDCHAR

STARTCHAR F
ENCODING 70
SWIDTH 556 0
DWIDTH 18 0
BBX 17 23 1 0
BITMAP
FFFF80
3FFF80
1F0180
1F0180
1F0180
1F0000
1F0000
1F0000
1F0200
1F0600
1FFE00
1FFE00
1F0600
1F0200
1F0200
1F0000
1F0000
1F0000
1F0000
1F0000
1F0000
FFE000
FFE000
ENDCHAR

STARTCHAR G
ENCODING 71
SWIDTH 833 0
DWIDTH 27 0
BBX 24 23 2 0
BITMAP
007FE0
03FFFC
0FC03E
1F000C
3E000C
3C0004
7C0004
780000
F80000
F80000
F80000
F80000
F80000
F801FF
F801FF
7C003E
7C003E
3E003E
3F003E
1F803E
07E07E
03FFF8
003F80
ENDCHAR

STARTCHAR H
ENCODING 72
SWIDTH 833 0
DWIDTH 27 0
BBX 26 23 1 0
BITMAP
FFE1FFC0
7FE1FFC0
1F003E00
1F003E00
1F003E00
1F003E00
1F003E00
1F003E00
1F003E00
1F003E00
1FFFFE00
1FFFFE00
1F003E00
1F003E00
1F003E00
1F003E00
1F003E00
1F003E00
1F003E00
1F003E00
1F003E00
FFE1FFC0
FFE1FFC0
ENDCHAR

STARTCHAR I
ENCODING 73
SWIDTH 389 0
DWIDTH 13 0
BBX 11 23 1 0
BITMAP
FFE0
FFE0
1F00
1F00
1F00
1F00
1F00
1F00
1F00
1F00
1F00
1F00
1F00
1F00
1F00
1F00
1F00
1F00
1F00
1F00
1F00
3F80
FFE0
ENDCHAR

STARTCHAR J
ENCODING 74
SWIDTH 389 0
DWIDTH 13 0
BBX 12 30 0 -7
BITMAP
7FF0
7FF0
0F80
0F80
0F80
0F80
0F80
0F80
0F80
0F80
0F80
0F80
0F80
0F80
0F80
0F80
0F80
0F80
0F80
0F80
0F80
0F80
0F80
0F80
0F00
0F00
0E00
8C00
F800
F000
ENDCHAR

STARTCHAR K
ENCODING 75
SWIDTH 778 0
DWIDTH 26 0
BBX 24 22 1 0
BITMAP
FFC07E
1F0070
1F00E0
1F01C0
1F0380
1F0700
1F0E00
1F1C00
1F3000
1F7800
1FFC00
1F7C00
1F7E00
1F3F00
1F1F80
1F0FC0
1F07E0
1F03E0
1F03F0
1F01F8
3F00FC
FFC07F
ENDCHAR

STARTCHAR L
ENCODING 76
SWIDTH 611 0
DWIDTH 20 0
BBX 18 23 1 0
BITMAP
FFE000
FFE000
1F0000
1F0000
1F0000
1F0000
1F0000
1F0000
1F0000
1F0000
1F0000
1F0000
1F0000
1F0000
1F0000
1F0000
1F0000
1F0040
1F0040
1F00C0
1F00C0
3FFFC0
7FFFC0
ENDCHAR

STARTCHAR M
ENCODING 77
SWIDTH 1000 0
DWIDTH 33 0
BBX 31 23 1 0
BITMAP
FF0001FE
FF8001FE
1F8003F0
1FC003F0
1FC007F0
1BC006F0
1BE00DF0
1BE00DF0
19F019F0
19F019F0
18F831F0
18F831F0
187C21F0
187C61F0
183E61F0
183EC1F0
181FC1F0
181F81F0
180F81F0
180F01F0
180F01F0
FF0607FE
FF0607FE
ENDCHAR

STARTCHAR N
ENCODING 78
SWIDTH 833 0
DWIDTH 27 0
BBX 25 24 1 -1
BITMAP
FE003F80
FF003F80
1F800E00
1F800E00
1FC00600
1FE00600
1BF00600
1BF80600
19F80600
18FC0600
187E0600
183F0600
181F8600
181FC600
180FE600
1807E600
1803F600
1801FE00
1800FE00
18007E00
18007E00
3C003E00
FF001E00
00000200
ENDCHAR

STARTCHAR O
ENCODING 79
SWIDTH 833 0
DWIDTH 27 0
BBX 25 23 1 0
BITMAP
007F8000
03FFF000
0F80F800
1F007C00
3E003E00
7C001F00
7C001F00
78000F80
F8000F80
F8000F80
F8000F80
F8000F80
F8000F80
F8000F80
F8000F80
7C000F00
7C001F00
7C001E00
3E003E00
1F007C00
0FC0F000
03FFE000
007F0000
ENDCHAR

STARTCHAR P
ENCODING 80
SWIDTH 611 0
DWIDTH 20 0
BBX 19 22 1 1
BITMAP
FFFF00
7FFFC0
1F07C0
1F03E0
1F03E0
1F03E0
1F03E0
1F03C0
1F03C0
1F0780
1F7F00
1F7C00
1F0000
1F0000
1F0000
1F0000
1F0000
1F0000
1F0000
1F0000
1F0000
FFE000
ENDCHAR

STARTCHAR Q
ENCODING 81
SWIDTH 833 0
DWIDTH 27 0
BBX 26 29 1 -6
BITMAP
00FF8000
03FFF000
0F80F800
1F007C00
3E003E00
3C001F00
7C001F00
78000F80
F8000F80
F8000F80
F8000F80
F8000F80
F8000F80
F8000F80
F8000F80
7C000F00
7C001F00
7C001E00
3E003E00
1F007C00
0FC0F800
03FFE000
00DF8000
003C0000
007F8000
01FFF040
0107FFC0
0000FF00
00001E00
ENDCHAR

STARTCHAR R
ENCODING 82
SWIDTH 722 0
DWIDTH 24 0
BBX 21 23 2 0
BITMAP
FFFE00
FFFF80
3E0F80
3E07C0
3E07C0
3E07C0
3E07C0
3E0780
3E0780
3E0E00
3E3C00
3EF800
3E7C00
3E7E00
3E3E00
3E1F00
3E1F80
3E0F80
3E07C0
3E07E0
3E03E0
FFC3F8
FFC1F8
ENDCHAR

STARTCHAR S
ENCODING 83
SWIDTH 611 0
DWIDTH 20 0
BBX 16 23 2 0
BITMAP
07F0
1FFE
3C1E
7804
F004
F004
F000
F800
FC00
FFE0
7FFC
3FFE
0FFF
007F
001F
000F
C00F
C00F
C00E
E01E
F03C
FFF0
1FC0
ENDCHAR

STARTCHAR T
ENCODING 84
SWIDTH 667 0
DWIDTH 22 0
BBX 21 23 0 0
BITMAP
FFFFF8
FFFFF8
C0F818
C0F818
C0F818
00F800
00F800
00F800
00F800
00F800
00F800
00F800
00F800
00F800
00F800
00F800
00F800
00F800
00F800
00F800
00F800
07FF00
07FF00
ENDCHAR

STARTCHAR U
ENCODING 85
SWIDTH 778 0
DWIDTH 26 0
BBX 25 23 0 0
BITMAP
FFE07F80
FFE07F80
1F000C00
1F000C00
1F000C00
1F000C00
1F000C00
1F000C00
1F000C00
1F000C00
1F000C00
1F000C00
1F000C00
1F000C00
1F000C00
1F000C00
1F000C00
1F001C00
0F801800
0FC07800
07FFF000
03FFC000
007F0000
ENDCHAR

STARTCHAR V
ENCODING 86
SWIDTH 778 0
DWIDTH 26 0
BBX 25 23 0 0
BITMAP
FFE07F80
FFE03F80
1F000C00
1F800C00
0F801800
0F801800
07C03800
07C03000
03E03000
03E06000
03E06000
01F0E000
01F0C000
00F8C000
00F98000
007D8000
007F0000
007F0000
003F0000
003E0000
001E0000
001C0000
001C0000
ENDCHAR

STARTCHAR W
ENCODING 87
SWIDTH 1000 0
DWIDTH 33 0
BBX 34 23 0 0
BITMAP
FF80603FC0
FF80601FC0
3E00F00600
3E00F00600
3E01F00600
3E01F80C00
1F03F80C00
1F037C0C00
1F067C0C00
1F067C1800
0F0C3E1800
0F8C3E1800
0F981F3800
0F981F3000
07B01F3000
07B00FB000
07E00FE000
07E007E000
07E007E000
03C007E000
03C003C000
038003C000
038001C000
ENDCHAR

STARTCHAR X
ENCODING 88
SWIDTH 667 0
DWIDTH 22 0
BBX 21 23 1 0
BITMAP
1C0078
FE00F8
BF01C0
1F81C0
0F8380
0FC700
07C600
07EC00
03EC00
01F800
01F000
00F800
00FC00
01FC00
01BE00
033E00
073F00
0E1F00
0C0F80
1C0FC0
3807C0
7007E0
F003F8
ENDCHAR

STARTCHAR Y
ENCODING 89
SWIDTH 667 0
DWIDTH 22 0
BBX 21 23 0 0
BITMAP
1C0018
FE0038
FF0030
3F0070
1F80E0
0FC0C0
07C1C0
07E180
03E380
01F300
01F600
00FE00
00FC00
007C00
007C00
007C00
007C00
007C00
007C00
007C00
007C00
00FE00
03FF80
ENDCHAR

STARTCHAR Z
ENCODING 90
SWIDTH 667 0
DWIDTH 22 0
BBX 20 23 1 0
BITMAP
3FFFF0
3FFFF0
3007E0
200FC0
200F80
001F80
003F00
003E00
007E00
007C00
00F800
01F800
03F000
03E000
07C000
0FC000
0F8000
1F0030
3F0030
7E0030
7C0060
FFFFE0
FFFFE0
ENDCHAR

STARTCHAR bracketleft
ENCODING 91
SWIDTH 333 0
DWIDTH 11 0
BBX 8 31 3 -7
BITMAP
FF
FF
F0
F0
F0
F0
F0
F0
F0
F0
F0
F0
F0
F0
F0
F0
F0
F0
F0
F0
F0
F0
F0
F0
F0
F0
F0
F0
F0
FE
FF
ENDCHAR

STARTCHAR backslash
ENCODING 92
SWIDTH 606 0
DWIDTH 20 0
BBX 17 30 2 -7
BITMAP
F00000
780000
380000
3C0000
1C0000
1C0000
1E0000
0E0000
0F0000
070000
078000
038000
03C000
01C000
01C000
01E000
00E000
00F000
007000
007800
003800
003C00
003C00
001C00
001E00
000E00
000F00
000700
000780
000780
ENDCHAR

STARTCHAR bracketright
ENCODING 93
SWIDTH 333 0
DWIDTH 11 0
BBX 8 31 0 -7
BITMAP
FF
FF
0F
0F
0F
0F
0F
0F
0F
0F
0F
0F
0F
0F
0F
0F
0F
0F
0F
0F
0F
0F
0F
0F
0F
0F
0F
0F
0F
FF
FF
ENDCHAR

STARTCHAR asciicircum
ENCODING 94
SWIDTH 606 0
DWIDTH 20 0
BBX 16 13 2 10
BITMAP
03C0
03C0
07E0
07E0
0F70
0E70
1E78
1C38
3C3C
381C
781E
700E
F00F
ENDCHAR

STARTCHAR underscore
ENCODING 95
SWIDTH 500 0
DWIDTH 17 0
BBX 17 2 0 -4
BITMAP
FFFF80
FFFF80
ENDCHAR

STARTCHAR quoteleft
ENCODING 96
SWIDTH 278 0
DWIDTH 9 0
BBX 7 10 1 14
BITMAP
02
0E
0C
1C
3C
38
78
78
F8
80
ENDCHAR

STARTCHAR a
ENCODING 97
SWIDTH 500 0
DWIDTH 17 0
BBX 15 16 1 0
BITMAP
0FE0
3FF0
31F8
20F8
0078
0078
01F8
1FF8
7C78
F878
F078
F078
F8F8
FF78
7E7E
3800
ENDCHAR

STARTCHAR b
ENCODING 98
SWIDTH 611 0
DWIDTH 20 0
BBX 18 24 1 0
BITMAP
0E0000
FE0000
3E0000
1E0000
1E0000
1E0000
1E0000
1E0000
1E3E00
1E7F00
1FFF80
1F0FC0
1E07C0
1E03C0
1E03C0
1E03C0
1E03C0
1E0380
1E0380
1E0700
1E0700
1F8E00
1FF800
13F000
ENDCHAR

STARTCHAR c
ENCODING 99
SWIDTH 444 0
DWIDTH 15 0
BBX 12 16 1 0
BITMAP
07F0
0FF0
3C70
7830
7030
F030
F000
F000
F000
F000
F800
F800
7C00
7F10
3FF0
0FE0
ENDCHAR

STARTCHAR d
ENCODING 100
SWIDTH 611 0
DWIDTH 20 0
BBX 17 24 2 0
BITMAP
000E00
007E00
003E00
001E00
001E00
001E00
001E00
001E00
07EE00
0FFE00
3C7E00
781E00
701E00
F01E00
F01E00
F01E00
F01E00
F01E00
F81E00
F81E00
7C7E00
7FDE00
3F9F80
0F1F80
ENDCHAR

STARTCHAR e
ENCODING 101
SWIDTH 500 0
DWIDTH 17 0
BBX 14 16 1 0
BITMAP
07E0
0FF0
3878
783C
783C
F03C
FFFC
FFF8
F800
F800
F800
7C00
7C00
3F1C
1FF8
0FE0
ENDCHAR

STARTCHAR f
ENCODING 102
SWIDTH 389 0
DWIDTH 13 0
BBX 13 24 0 0
BITMAP
00F8
01F8
03F8
0710
0E00
1E00
1E00
1E00
1E00
1E00
3FF0
FFE0
1E00
1E00
1E00
1E00
1E00
1E00
1E00
1E00
1E00
1E00
1E00
FFC0
ENDCHAR

STARTCHAR g
ENCODING 103
SWIDTH 556 0
DWIDTH 18 0
BBX 18 25 1 -9
BITMAP
07E000
1FFFC0
3C7F80
783C00
783C00
783C00
783C00
783800
3C7800
1FF000
078000
180000
380000
3FFF00
3FFF00
3FFF80
180F80
700780
E00780
E00700
E00700
F00E00
781C00
3FF800
0FC000
ENDCHAR

STARTCHAR h
ENCODING 104
SWIDTH 611 0
DWIDTH 20 0
BBX 18 24 1 0
BITMAP
0C0000
FC0000
7C0000
3C0000
3C0000
3C0000
3C0000
3C0000
3C7C00
3CFE00
3FFF00
3E1F00
3C0F00
3C0F00
3C0F00
3C0F00
3C0F00
3C0F00
3C0F00
3C0F00
3C0F00
3C0F00
FF8FC0
FF8FC0
ENDCHAR

STARTCHAR i
ENCODING 105
SWIDTH 333 0
DWIDTH 11 0
BBX 10 23 1 0
BITMAP
1C00
3E00
3E00
3E00
1C00
0000
0000
0200
7E00
7E00
1E00
1E00
1E00
1E00
1E00
1E00
1E00
1E00
1E00
1E00
1E00
FFC0
FFC0
ENDCHAR

STARTCHAR j
ENCODING 106
SWIDTH 333 0
DWIDTH 11 0
BBX 8 32 0 -8
BITMAP
0E
1F
1F
1F
0E
00
00
00
01
7F
7F
0F
0F
0F
0F
0F
0F
0F
0F
0F
0F
0F
0F
0F
0F
0F
0F
0E
0E
1C
38
F0
ENDCHAR

STARTCHAR k
ENCODING 107
SWIDTH 611 0
DWIDTH 20 0
BBX 18 24 1 0
BITMAP
040000
FC0000
FC0000
3C0000
3C0000
3C0000
3C0000
3C0000
3C0000
3C0F80
3C0E00
3C1C00
3C3000
3CE000
3DC000
3DE000
3DF000
3DF800
3CFC00
3C7E00
3C3E00
3C1F00
7E0FC0
FF8FC0
ENDCHAR

STARTCHAR l
ENCODING 108
SWIDTH 333 0
DWIDTH 11 0
BBX 10 24 0 0
BITMAP
0200
7E00
7E00
1E00
1E00
1E00
1E00
1E00
1E00
1E00
1E00
1E00
1E00
1E00
1E00
1E00
1E00
1E00
1E00
1E00
1E00
1E00
1F00
FFC0
ENDCHAR

STARTCHAR m
ENCODING 109
SWIDTH 889 0
DWIDTH 29 0
BBX 28 16 1 0
BITMAP
047C1F00
FCFE3F80
FFFFFFC0
3E1F87C0
3C0F03C0
3C0F03C0
3C0F03C0
3C0F03C0
3C0F03C0
3C0F03C0
3C0F03C0
3C0F03C0
3C0F03C0
3C0F03C0
FF3FE3F0
FF3FE7F0
ENDCHAR

STARTCHAR n
ENCODING 110
SWIDTH 611 0
DWIDTH 20 0
BBX 18 16 1 0
BITMAP
0C7C00
FCFE00
FDFF00
3E1F00
3C0F00
3C0F00
3C0F00
3C0F00
3C0F00
3C0F00
3C0F00
3C0F00
3C0F00
3C0F00
FF8FC0
FF8FC0
ENDCHAR

STARTCHAR o
ENCODING 111
SWIDTH 556 0
DWIDTH 18 0
BBX 15 16 2 0
BITMAP
07E0
1FF8
787C
783E
F03E
F01E
F01E
F01E
F01E
F01E
F81E
F81E
783C
7C38
1FF0
07C0
ENDCHAR

STARTCHAR p
ENCODING 112
SWIDTH 611 0
DWIDTH 20 0
BBX 18 24 1 -8
BITMAP
063E00
FE7F00
FEFF80
1F0FC0
1E07C0
1E03C0
1E03C0
1E03C0
1E03C0
1E0380
1E0380
1E0700
1E0700
1F0E00
1FF800
1EF000
1E0000
1E0000
1E0000
1E0000
1E0000
1E0000
3F0000
FFC000
ENDCHAR

STARTCHAR q
ENCODING 113
SWIDTH 611 0
DWIDTH 20 0
BBX 18 24 2 -8
BITMAP
03E300
0FFE00
1C3E00
781E00
701E00
F01E00
F01E00
F01E00
F01E00
F01E00
F81E00
F81E00
7C7E00
7FDE00
3F9E00
0F1E00
001E00
001E00
001E00
001E00
001E00
001E00
003F00
00FFC0
ENDCHAR

STARTCHAR r
ENCODING 114
SWIDTH 389 0
DWIDTH 13 0
BBX 12 16 0 0
BITMAP
0230
FE70
FEF0
1EF0
1F10
1E00
1E00
1E00
1E00
1E00
1E00
1E00
1E00
1E00
FFC0
FFC0
ENDCHAR

STARTCHAR s
ENCODING 115
SWIDTH 444 0
DWIDTH 15 0
BBX 12 16 2 0
BITMAP
0F80
3FE0
7060
E040
E040
F800
FF80
FFE0
3FE0
07F0
80F0
80F0
C0E0
C0E0
FFC0
3E00
ENDCHAR

STARTCHAR t
ENCODING 116
SWIDTH 333 0
DWIDTH 11 0
BBX 12 22 -1 0
BITMAP
0100
0F00
1E00
1E00
1E00
1E00
1E00
3FF0
FFE0
1E00
1E00
1E00
1E00
1E00
1E00
1E00
1E00
1E00
1F00
1FE0
0FC0
0780
ENDCHAR

STARTCHAR u
ENCODING 117
SWIDTH 611 0
DWIDTH 20 0
BBX 18 16 1 0
BITMAP
040100
FC3F00
FC7F00
3C0F00
3C0F00
3C0F00
3C0F00
3C0F00
3C0F00
3C0F00
3C0F00
3C1F00
3E3F00
3FEF00
1FCFC0
0F8FC0
ENDCHAR

STARTCHAR v
ENCODING 118
SWIDTH 556 0
DWIDTH 18 0
BBX 18 15 0 0
BITMAP
FF9FC0
3E0700
3E0700
1E0600
1E0E00
1F0C00
0F0C00
0F9800
079800
07B000
07F000
03E000
03E000
01E000
01C000
ENDCHAR

STARTCHAR w
ENCODING 119
SWIDTH 833 0
DWIDTH 27 0
BBX 27 16 0 0
BITMAP
00030000
FF870FE0
3E070180
1E0F8380
1E0F8300
1F1FC300
0F1BC700
0F1BE600
0F31E600
0FB1EE00
07E1FC00
07E0FC00
07C0FC00
03C07800
03807800
03803800
ENDCHAR

STARTCHAR x
ENCODING 120
SWIDTH 500 0
DWIDTH 17 0
BBX 16 16 0 0
BITMAP
1C0F
7E0F
FE1C
3F38
1FB0
0FE0
07C0
03E0
03E0
03F0
06F8
0EF8
0C7C
187E
F83F
F01C
ENDCHAR

STARTCHAR y
ENCODING 121
SWIDTH 556 0
DWIDTH 18 0
BBX 18 24 0 -9
BITMAP
FF8FC0
3F0780
1E0300
1F0700
0F0600
0F0600
0F8C00
078C00
07DC00
07D800
03D800
03F000
01F000
01E000
01E000
00C000
00C000
00C000
018000
018000
230000
7F0000
7E0000
780000
ENDCHAR

STARTCHAR z
ENCODING 122
SWIDTH 500 0
DWIDTH 17 0
BBX 15 15 1 1
BITMAP
7FFC
7FFC
60F8
40F8
41F0
03E0
03C0
07C0
0F80
1F00
1E06
3E06
7C06
F80C
FFFC
ENDCHAR

STARTCHAR braceleft
ENCODING 123
SWIDTH 310 0
DWIDTH 10 0
BBX 9 31 1 -7
BITMAP
0080
0700
0E00
1C00
3C00
3C00
3C00
3C00
1E00
1E00
1E00
1E00
1C00
1800
3000
C000
6000
3800
1C00
1C00
1E00
1E00
1E00
1E00
3C00
3C00
3C00
1C00
1C00
0E00
0380
ENDCHAR

STARTCHAR bar
ENCODING 124
SWIDTH 606 0
DWIDTH 20 0
BBX 3 30 8 -6
BITMAP
E0
E0
E0
E0
E0
E0
E0
E0
E0
E0
E0
E0
E0
E0
E0
E0
E0
E0
E0
E0
E0
E0
E0
E0
E0
E0
E0
E0
E0
E0
ENDCHAR

STARTCHAR braceright
ENCODING 125
SWIDTH 310 0
DWIDTH 10 0
BBX 9 31 0 -7
BITMAP
8000
7000
3800
1C00
1E00
1E00
1E00
1E00
3C00
3C00
3C00
3C00
1C00
0C00
0600
0080
0300
0E00
1C00
1C00
3C00
3C00
3C00
3E00
1E00
1E00
1E00
1C00
1C00
3800
E000
ENDCHAR

STARTCHAR asciitilde
ENCODING 126
SWIDTH 606 0
DWIDTH 20 0
BBX 18 6 1 8
BITMAP
3E0040
7FC0C0
7FF1C0
E3FF80
C0FF80
801F00
ENDCHAR

STARTCHAR space
ENCODING 160
SWIDTH 250 0
DWIDTH 10 0
BBX 0 0 0 0
BITMAP
ENDCHAR

STARTCHAR exclamdown
ENCODING 161
SWIDTH 278 0
DWIDTH 9 0
BBX 5 23 2 -7
BITMAP
70
F8
F8
F8
70
00
00
20
30
30
70
70
70
70
70
70
F8
F8
F8
F8
F8
F0
C0
ENDCHAR

STARTCHAR cent
ENCODING 162
SWIDTH 500 0
DWIDTH 17 0
BBX 12 20 2 1
BITMAP
0300
0300
03F0
0FF0
3F70
7320
7320
F300
F300
F300
F300
F300
FB00
7F00
7F10
3FF0
1FE0
0300
0300
0300
ENDCHAR

STARTCHAR sterling
ENCODING 163
SWIDTH 500 0
DWIDTH 17 0
BBX 15 23 1 0
BITMAP
007E
01FE
038E
0F06
1F06
1E00
1E00
1E00
3E00
3E00
FFF0
FFF0
3C00
3C00
3C00
3C00
3802
3006
2006
7FFE
FFFE
C3FE
803C
ENDCHAR

STARTCHAR currency
ENCODING 164
SWIDTH 606 0
DWIDTH 20 0
BBX 17 16 1 4
BITMAP
67F300
FFFF80
7FFF80
3E3F00
780F00
780780
F00380
F00380
F00380
F00780
780780
7C0F00
3E3F00
7FFF80
FFFF80
67F300
ENDCHAR

STARTCHAR yen
ENCODING 165
SWIDTH 500 0
DWIDTH 17 0
BBX 19 23 -2 0
BITMAP
180060
FC00E0
7E00C0
3F01C0
1F0180
0F8300
0F8300
07C600
07C600
03EC00
01E800
3FFFC0
3FFFC0
00F800
00F000
00F000
3FFFC0
3FFFC0
00F800
00F800
00F800
01FE00
03FE00
ENDCHAR

STARTCHAR brokenbar
ENCODING 166
SWIDTH 606 0
DWIDTH 20 0
BBX 3 30 8 -6
BITMAP
E0
E0
E0
E0
E0
E0
E0
E0
E0
E0
E0
00
00
00
00
00
00
00
00
E0
E0
E0
E0
E0
E0
E0
E0
E0
E0
E0
ENDCHAR

STARTCHAR section
ENCODING 167
SWIDTH 500 0
DWIDTH 17 0
BBX 15 30 1 -7
BITMAP
03F0
0FF8
1FF8
3C18
3008
7008
7000
7800
7E00
7FC0
3FF8
7FFC
F1FE
E03E
F01E
F80E
FE0E
7FDC
3FF8
0FFC
01FC
007C
001C
601C
601C
6038
7078
7FF0
7FE0
0F80
ENDCHAR

STARTCHAR dieresis
ENCODING 168
SWIDTH 333 0
DWIDTH 11 0
BBX 11 4 0 17
BITMAP
60C0
F1E0
F1E0
60C0
ENDCHAR

STARTCHAR copyright
ENCODING 169
SWIDTH 747 0
DWIDTH 25 0
BBX 23 23 1 0
BITMAP
01FF00
0783C0
0C0060
180030
307E98
61C18C
438084
C70086
C70006
8F0002
8F0002
8F0002
8F0002
C70006
C78006
438084
61C30C
20FC08
300018
180070
0E00E0
03C780
00FE00
ENDCHAR

STARTCHAR ordfeminine
ENCODING 170
SWIDTH 438 0
DWIDTH 14 0
BBX 9 10 3 13
BITMAP
1E00
7F00
4700
0700
3F00
7700
E700
E700
FF00
7780
ENDCHAR

STARTCHAR guillemotleft
ENCODING 171
SWIDTH 500 0
DWIDTH 17 0
BBX 14 13 1 2
BITMAP
0104
020C
0618
0C38
1C70
78F0
F1E0
F1E0
38F0
1C70
0C38
0618
030C
ENDCHAR

STARTCHAR logicalnot
ENCODING 172
SWIDTH 606 0
DWIDTH 20 0
BBX 16 9 2 7
BITMAP
FFFF
FFFF
FFFF
0007
0007
0007
0007
0007
0007
ENDCHAR

STARTCHAR hyphen
ENCODING 173
SWIDTH 333 0
DWIDTH 11 0
BBX 11 4 0 6
BITMAP
7FE0
7FE0
7FC0
FFC0
ENDCHAR

STARTCHAR registered
ENCODING 174
SWIDTH 747 0
DWIDTH 25 0
BBX 23 23 1 0
BITMAP
01FE00
07C780
0E00E0
180030
300018
27FE0C
61C70C
41C786
C1C786
C1C782
81CF02
81FC02
81DC02
C1CE02
C1CE06
41C706
61C78C
27F3CC
300018
180030
0E00E0
03C7C0
00FE00
ENDCHAR

STARTCHAR macron
ENCODING 175
SWIDTH 333 0
DWIDTH 11 0
BBX 11 2 0 19
BITMAP
FFE0
FFE0
ENDCHAR

STARTCHAR degree
ENCODING 176
SWIDTH 396 0
DWIDTH 13 0
BBX 10 10 2 13
BITMAP
1E00
3F80
6180
C0C0
C0C0
C0C0
C0C0
6180
3F80
1E00
ENDCHAR

STARTCHAR plusminus
ENCODING 177
SWIDTH 606 0
DWIDTH 20 0
BBX 17 22 2 0
BITMAP
01C000
01C000
01C000
01C000
01C000
01C000
01C000
FFFF80
FFFF80
FFFF80
01C000
01C000
01C000
01C000
01C000
01C000
01C000
000000
000000
FFFF80
FFFF80
FFFF80
ENDCHAR

STARTCHAR twosuperior
ENCODING 178
SWIDTH 361 0
DWIDTH 12 0
BBX 10 14 1 9
BITMAP
3E00
7F00
C780
C380
8380
0380
0700
0600
0C00
1800
3000
7FC0
FFC0
FFC0
ENDCHAR

STARTCHAR threesuperior
ENCODING 179
SWIDTH 361 0
DWIDTH 12 0
BBX 10 14 1 9
BITMAP
3F00
7F80
6780
4380
0300
0200
1F00
1F80
03C0
01C0
81C0
C180
6300
7E00
ENDCHAR

STARTCHAR acute
ENCODING 180
SWIDTH 333 0
DWIDTH 11 0
BBX 7 5 2 17
BITMAP
0E
1E
3C
70
C0
ENDCHAR

STARTCHAR mu
ENCODING 181
SWIDTH 553 0
DWIDTH 18 0
BBX 17 21 1 -6
BITMAP
781E00
781E00
781E00
781E00
781E00
781E00
781E00
781E00
781E00
781E00
781E00
783E00
7C6E00
6FDF80
6F8C00
600000
E00000
F00000
F00000
F00000
600000
ENDCHAR

STARTCHAR paragraph
ENCODING 182
SWIDTH 641 0
DWIDTH 21 0
BBX 19 30 1 -7
BITMAP
07FFE0
1FE380
3FE300
7FE300
7FE300
FFE300
FFE300
FFE300
FFE300
FFE300
7FE300
7FE300
3FE300
1FE300
07E300
006300
006300
006300
006300
006300
006300
006300
006300
006300
006300
006300
006300
006300
006300
006300
ENDCHAR

STARTCHAR periodcentered
ENCODING 183
SWIDTH 250 0
DWIDTH 8 0
BBX 5 5 2 9
BITMAP
70
F8
F8
F8
70
ENDCHAR

STARTCHAR cedilla
ENCODING 184
SWIDTH 333 0
DWIDTH 11 0
BBX 8 7 1 -7
BITMAP
08
18
1F
07
03
C7
7E
ENDCHAR

STARTCHAR onesuperior
ENCODING 185
SWIDTH 361 0
DWIDTH 12 0
BBX 9 14 1 9
BITMAP
0200
1E00
FE00
CE00
0E00
0E00
0E00
0E00
0E00
0E00
0E00
0E00
0E00
7F80
ENDCHAR

STARTCHAR ordmasculine
ENCODING 186
SWIDTH 488 0
DWIDTH 16 0
BBX 10 10 3 13
BITMAP
3F00
7380
E1C0
E1C0
E1C0
E1C0
E1C0
F1C0
7380
3F00
ENDCHAR

STARTCHAR guillemotright
ENCODING 187
SWIDTH 500 0
DWIDTH 17 0
BBX 14 13 1 2
BITMAP
8080
4180
60C0
30E0
3870
1C38
0F1C
0F3C
1C38
3870
30E0
60C0
C180
ENDCHAR

STARTCHAR onequarter
ENCODING 188
SWIDTH 889 0
DWIDTH 29 0
BBX 28 25 1 -1
BITMAP
00000C00
02001800
1E001800
FE003000
CE003000
0E006000
0E006000
0E00C000
0E00C000
0E018000
0E018040
0E0303C0
0E0303C0
0E0605C0
7F860DC0
000C09C0
000C19C0
001811C0
001821C0
00307FF0
00307FF0
006001C0
006001C0
00C00FE0
01C00000
ENDCHAR

STARTCHAR onehalf
ENCODING 189
SWIDTH 889 0
DWIDTH 29 0
BBX 28 25 1 -1
BITMAP
00001800
06003000
7E003000
EE006000
0E006000
0E00C000
0E00C000
0E008000
0E018000
0E010000
0E030F80
0E021FC0
0E0619E0
7F8430E0
000C20E0
000800E0
001801C0
00100180
00300300
00200600
00600C00
00601FF0
00C03FF0
00C03FF0
01800000
ENDCHAR

STARTCHAR threequarters
ENCODING 190
SWIDTH 889 0
DWIDTH 29 0
BBX 27 25 1 -1
BITMAP
00001000
3F001800
7F803000
67803000
43806000
03006000
0200C000
1F00C000
1F818000
03C18000
01C30040
81C303C0
C1860780
63060580
7E0C0980
000C1B80
00181380
00183380
00302380
00307FE0
00607FE0
00600380
00C00380
00C00FE0
01800000
ENDCHAR

STARTCHAR questiondown
ENCODING 191
SWIDTH 444 0
DWIDTH 15 0
BBX 12 23 1 -7
BITMAP
0380
07C0
07C0
07C0
0380
0000
0000
0180
0180
0180
0380
0700
1E00
3C00
7800
F800
F000
F010
F830
FC70
7FF0
7FE0
1F80
ENDCHAR

STARTCHAR Agrave
ENCODING 192
SWIDTH 778 0
DWIDTH 26 0
BBX 24 30 1 0
BITMAP
006000
00F000
007800
003C00
000E00
000300
000000
001800
003C00
003C00
007E00
007E00
007F00
00DF00
00DF00
018F80
018F80
0187C0
0307C0
0307C0
0603E0
07FFE0
07FFF0
0C01F0
0C01F8
1C00F8
1800FC
38007C
FF03FF
FF03FF
ENDCHAR

STARTCHAR Aacute
ENCODING 193
SWIDTH 778 0
DWIDTH 26 0
BBX 24 30 1 0
BITMAP
000300
000700
001F00
003C00
007000
00C000
000000
001800
003C00
003C00
007E00
007E00
007F00
00DF00
00DF00
018F80
018F80
0187C0
0307C0
0307C0
0603E0
07FFE0
07FFF0
0C01F0
0C01F8
1C00F8
1800FC
38007C
FF03FF
FF03FF
ENDCHAR

STARTCHAR Acircumflex
ENCODING 194
SWIDTH 778 0
DWIDTH 26 0
BBX 24 30 1 0
BITMAP
001C00
003C00
003E00
006700
00C100
018080
000000
001800
003C00
003C00
007E00
007E00
007F00
00DF00
00DF00
018F80
018F80
0187C0
0307C0
0307C0
0603E0
07FFE0
07FFF0
0C01F0
0C01F8
1C00F8
1800FC
38007C
FF03FF
FF03FF
ENDCHAR

STARTCHAR Atilde
ENCODING 195
SWIDTH 778 0
DWIDTH 26 0
BBX 24 30 1 0
BITMAP
000040
00F8C0
01FF80
030F80
020000
000000
000000
001800
003C00
003C00
007E00
007E00
007F00
00DF00
00DF00
018F80
018F80
0187C0
0307C0
0307C0
0603E0
07FFE0
07FFF0
0C01F0
0C01F8
1C00F8
1800FC
38007C
FF03FF
FF03FF
ENDCHAR

STARTCHAR Adieresis
ENCODING 196
SWIDTH 778 0
DWIDTH 26 0
BBX 25 28 1 0
BITMAP
00C18000
01E3C000
01E3C000
00C18000
00000000
001C0000
001C0000
003E0000
003E0000
007E0000
007F0000
006F0000
00CF8000
00CF8000
018FC000
0187C000
0387C000
0303E000
0203E000
07FFF000
07FFF000
0E01F800
0C00F800
1C00F800
18007C00
18007C00
FF03FF80
FF03FF80
ENDCHAR

STARTCHAR Aring
ENCODING 197
SWIDTH 778 0
DWIDTH 26 0
BBX 25 31 1 0
BITMAP
001C0000
003E0000
00630000
00630000
00630000
003E0000
001C0000
00000000
001C0000
001C0000
003E0000
003E0000
007E0000
007F0000
006F0000
00CF8000
00CF8000
018FC000
0187C000
0387C000
0303E000
0303E000
07FFF000
07FFF000
0E01F800
0C00F800
0C00F800
18007C00
38007C00
FF03FF80
FF03FF80
ENDCHAR

STARTCHAR AE
ENCODING 198
SWIDTH 1000 0
DWIDTH 33 0
BBX 31 23 0 0
BITMAP
003FFFFE
003FFFFE
00077806
0006F806
000CF804
001CF800
0018F800
0038F800
0030F818
0060F818
0060FFF8
00C0FFF8
01C0F818
0180F818
03FFF818
07FFF800
0600F800
0E00F802
0C00F802
1C00F806
3800F806
FE01FFFE
FF03FFFE
ENDCHAR

STARTCHAR Ccedilla
ENCODING 199
SWIDTH 722 0
DWIDTH 24 0
BBX 22 30 1 -7
BITMAP
007FC0
03FFF8
07C07C
1F0018
3E0018
3C0008
7C0008
780000
F80000
F80000
F80000
F80000
F80000
F80000
FC0000
7C0000
7C0000
3E0000
3F0000
1F8004
0FF038
03FFF0
007FC0
000800
001800
001F00
000380
000380
00C300
007E00
ENDCHAR

STARTCHAR Egrave
ENCODING 200
SWIDTH 611 0
DWIDTH 20 0
BBX 18 30 1 0
BITMAP
030000
078000
03C000
00E000
003800
000000
000000
FFFFC0
3FFFC0
1F00C0
1F00C0
1F00C0
1F0000
1F0000
1F0300
1F0300
1F0300
1FFF00
1FFF00
1F0300
1F0300
1F0300
1F0000
1F0000
1F0040
1F0040
1F00C0
1F00C0
3FFFC0
7FFFC0
ENDCHAR

STARTCHAR Eacute
ENCODING 201
SWIDTH 611 0
DWIDTH 20 0
BBX 18 30 1 0
BITMAP
003800
007800
00F000
01C000
078000
000000
000000
FFFFC0
3FFFC0
1F00C0
1F00C0
1F00C0
1F0000
1F0000
1F0300
1F0300
1F0300
1FFF00
1FFF00
1F0300
1F0300
1F0300
1F0000
1F0000
1F0040
1F0040
1F00C0
1F00C0
3FFFC0
7FFFC0
ENDCHAR

STARTCHAR Ecircumflex
ENCODING 202
SWIDTH 611 0
DWIDTH 20 0
BBX 18 30 1 0
BITMAP
00E000
01F000
03B000
031800
0E0E00
000000
000000
FFFFC0
3FFFC0
1F00C0
1F00C0
1F00C0
1F0000
1F0000
1F0300
1F0300
1F0300
1FFF00
1FFF00
1F0300
1F0300
1F0300
1F0000
1F0000
1F0040
1F0040
1F00C0
1F00C0
3FFFC0
7FFFC0
ENDCHAR

STARTCHAR Edieresis
ENCODING 203
SWIDTH 611 0
DWIDTH 20 0
BBX 19 29 1 0
BITMAP
060C00
0F1E00
0F1E00
060C00
000000
000000
FFFFC0
3FFFC0
1F00C0
1F00C0
1F00C0
1F0000
1F0000
1F0100
1F0300
1F0300
1FFF00
1FFF00
1F0300
1F0300
1F0100
1F0000
1F0000
1F0060
1F0040
1F0040
1F00C0
3FFFC0
7FFFC0
ENDCHAR

STARTCHAR Igrave
ENCODING 204
SWIDTH 389 0
DWIDTH 13 0
BBX 11 30 1 0
BITMAP
2000
3800
3C00
1E00
0700
0180
0000
FFE0
FFE0
1F00
1F00
1F00
1F00
1F00
1F00
1F00
1F00
1F00
1F00
1F00
1F00
1F00
1F00
1F00
1F00
1F00
1F00
1F00
3F80
FFE0
ENDCHAR

STARTCHAR Iacute
ENCODING 205
SWIDTH 389 0
DWIDTH 13 0
BBX 11 30 1 0
BITMAP
0080
0380
0780
0F00
1C00
3000
0000
FFE0
FFE0
1F00
1F00
1F00
1F00
1F00
1F00
1F00
1F00
1F00
1F00
1F00
1F00
1F00
1F00
1F00
1F00
1F00
1F00
1F00
3F80
FFE0
ENDCHAR

STARTCHAR Icircumflex
ENCODING 206
SWIDTH 389 0
DWIDTH 13 0
BBX 11 30 1 0
BITMAP
0600
0E00
1F00
3980
60C0
C060
0000
FFE0
FFE0
1F00
1F00
1F00
1F00
1F00
1F00
1F00
1F00
1F00
1F00
1F00
1F00
1F00
1F00
1F00
1F00
1F00
1F00
1F00
3F80
FFE0
ENDCHAR

STARTCHAR Idieresis
ENCODING 207
SWIDTH 389 0
DWIDTH 13 0
BBX 11 28 1 0
BITMAP
60C0
F1E0
F1E0
60C0
0000
FFE0
FFE0
1F00
1F00
1F00
1F00
1F00
1F00
1F00
1F00
1F00
1F00
1F00
1F00
1F00
1F00
1F00
1F00
1F00
1F00
1F00
3F80
FFE0
ENDCHAR

STARTCHAR Gbreve
ENCODING 208
SWIDTH 833 0
DWIDTH 27 0
BBX 24 29 2 0
BITMAP
018080
008180
00C300
007F00
003E00
000000
003FC0
01FFFC
07C03E
1F000C
3E000C
3C0004
7C0004
780000
F80000
F80000
F80000
F80000
F80000
F801FF
F801FF
7C003E
7C003E
3E003E
3F003E
1F803E
07E07E
03FFF8
003F80
ENDCHAR

STARTCHAR Ntilde
ENCODING 209
SWIDTH 833 0
DWIDTH 27 0
BBX 25 30 1 -1
BITMAP
00002000
00FC6000
01FFC000
018F8000
01000000
00000000
FE003F80
FF003F80
1F800E00
1F800E00
1FC00600
1FE00600
1BF00600
1BF80600
19F80600
18FC0600
187E0600
183F0600
181F8600
181FC600
180FE600
1807E600
1803F600
1801FE00
1800FE00
18007E00
18007E00
3C003E00
FF001E00
00000200
ENDCHAR

STARTCHAR Ograve
ENCODING 210
SWIDTH 833 0
DWIDTH 27 0
BBX 25 30 1 0
BITMAP
00600000
00700000
00780000
001C0000
000E0000
00030000
00000000
007F8000
03FFF000
0F80F800
1F007C00
3E003E00
7C001F00
7C001F00
78000F80
F8000F80
F8000F80
F8000F80
F8000F80
F8000F80
F8000F80
F8000F80
7C000F00
7C001F00
7C001E00
3E003E00
1F007C00
0FC0F000
03FFE000
007F0000
ENDCHAR

STARTCHAR Oacute
ENCODING 211
SWIDTH 833 0
DWIDTH 27 0
BBX 25 30 1 0
BITMAP
00030000
00070000
000F0000
001C0000
00380000
00600000
00000000
007F8000
03FFF000
0F80F800
1F007C00
3E003E00
7C001F00
7C001F00
78000F80
F8000F80
F8000F80
F8000F80
F8000F80
F8000F80
F8000F80
F8000F80
7C000F00
7C001F00
7C001E00
3E003E00
1F007C00
0FC0F000
03FFE000
007F0000
ENDCHAR

STARTCHAR Ocircumflex
ENCODING 212
SWIDTH 833 0
DWIDTH 27 0
BBX 25 30 1 0
BITMAP
000C0000
001E0000
003E0000
00730000
00C18000
0180C000
00000000
007F8000
03FFF000
0F80F800
1F007C00
3E003E00
7C001F00
7C001F00
78000F80
F8000F80
F8000F80
F8000F80
F8000F80
F8000F80
F8000F80
F8000F80
7C000F00
7C001F00
7C001E00
3E003E00
1F007C00
0FC0F000
03FFE000
007F0000
ENDCHAR

STARTCHAR Otilde
ENCODING 213
SWIDTH 833 0
DWIDTH 27 0
BBX 25 30 1 0
BITMAP
00002000
00F84000
01FFC000
010F8000
03000000
00000000
00000000
007F8000
03FFF000
0F80F800
1F007C00
3E003E00
7C001F00
7C001F00
78000F80
F8000F80
F8000F80
F8000F80
F8000F80
F8000F80
F8000F80
F8000F80
7C000F00
7C001F00
7C001E00
3E003E00
1F007C00
0FC0F000
03FFE000
007F0000
ENDCHAR

STARTCHAR Odieresis
ENCODING 214
SWIDTH 833 0
DWIDTH 27 0
BBX 25 28 1 0
BITMAP
00C18000
01E3C000
01E3C000
00C18000
00000000
007F8000
03FFF000
0F80F800
1E007C00
3E003E00
7C001F00
7C001F00
78000F80
F8000F80
F8000F80
F8000F80
F8000F80
F8000F80
F8000F80
F8000F80
7C000F00
7C001F00
7C001E00
3E003E00
1F007C00
0FC0F000
03FFE000
007F0000
ENDCHAR

STARTCHAR multiply
ENCODING 215
SWIDTH 606 0
DWIDTH 20 0
BBX 14 14 3 4
BITMAP
6018
F03C
7878
3CF0
1EE0
0FC0
0780
0FC0
1FE0
3CF0
7878
F03C
6018
2008
ENDCHAR

STARTCHAR Oslash
ENCODING 216
SWIDTH 833 0
DWIDTH 27 0
BBX 26 24 0 0
BITMAP
00000040
007FC1C0
01FFFB80
07C07F00
0F803E00
1F001F00
1E003F80
3E007780
3C00E7C0
7C01C7C0
7C0387C0
7C0607C0
7C1C07C0
7C3807C0
7C7007C0
7CE007C0
3EC00780
3F800F80
3F000F00
1F001F00
1F803E00
3BE07800
E1FFF000
403F8000
ENDCHAR

STARTCHAR Ugrave
ENCODING 217
SWIDTH 778 0
DWIDTH 26 0
BBX 25 30 0 0
BITMAP
00700000
00780000
003C0000
001E0000
00078000
00000000
00000000
FFE07F80
FFE07F80
1F000C00
1F000C00
1F000C00
1F000C00
1F000C00
1F000C00
1F000C00
1F000C00
1F000C00
1F000C00
1F000C00
1F000C00
1F000C00
1F000C00
1F000C00
1F001C00
0F801800
0FC07800
07FFF000
03FFE000
007F0000
ENDCHAR

STARTCHAR Uacute
ENCODING 218
SWIDTH 778 0
DWIDTH 26 0
BBX 25 30 0 0
BITMAP
00038000
00070000
000F0000
001C0000
00700000
00000000
00000000
FFE07F80
FFE07F80
1F000C00
1F000C00
1F000C00
1F000C00
1F000C00
1F000C00
1F000C00
1F000C00
1F000C00
1F000C00
1F000C00
1F000C00
1F000C00
1F000C00
1F000C00
1F001C00
0F801800
0FC07800
07FFF000
03FFE000
007F0000
ENDCHAR

STARTCHAR Ucircumflex
ENCODING 219
SWIDTH 778 0
DWIDTH 26 0
BBX 25 30 0 0
BITMAP
000C0000
001E0000
003B0000
00738000
00408000
00804000
00000000
FFE07F80
FFE07F80
1F000C00
1F000C00
1F000C00
1F000C00
1F000C00
1F000C00
1F000C00
1F000C00
1F000C00
1F000C00
1F000C00
1F000C00
1F000C00
1F000C00
1F000C00
1F001C00
0F801800
0FC07800
07FFF000
03FFE000
007F0000
ENDCHAR

STARTCHAR Udieresis
ENCODING 220
SWIDTH 778 0
DWIDTH 26 0
BBX 25 29 0 0
BITMAP
00C18000
01E3C000
01E3C000
00C18000
00000000
00000000
FFE07F80
FFE07F80
1F000C00
1F000C00
1F000C00
1F000C00
1F000C00
1F000C00
1F000C00
1F000C00
1F000C00
1F000C00
1F000C00
1F000C00
1F000C00
1F000C00
1F000C00
1F001C00
0F801800
0FC07800
07FFF000
03FFE000
007F0000
ENDCHAR

STARTCHAR Idotaccent
ENCODING 221
SWIDTH 389 0
DWIDTH 13 0
BBX 11 29 1 0
BITMAP
0C00
1E00
1E00
0C00
0000
0000
0000
FFE0
1F00
1F00
1F00
1F00
1F00
1F00
1F00
1F00
1F00
1F00
1F00
1F00
1F00
1F00
1F00
1F00
1F00
1F00
1F00
1F00
FFE0
ENDCHAR

STARTCHAR Scedilla
ENCODING 222
SWIDTH 611 0
DWIDTH 20 0
BBX 16 30 2 -7
BITMAP
07F0
1FFE
3C1E
7804
F004
F004
F000
F800
FC00
FFE0
7FFC
3FFE
0FFF
007F
001F
000F
C00F
C00F
C00E
E01E
F03C
FFF0
1FC0
0100
0380
03E0
0060
0060
18E0
0FC0
ENDCHAR

STARTCHAR germandbls
ENCODING 223
SWIDTH 611 0
DWIDTH 20 0
BBX 17 24 1 0
BITMAP
00FC00
03FE00
070F00
0E0700
1C0700
3C0300
3C0300
3C0300
3C1F00
7C3E00
FC6000
3CE000
3CF000
3CF800
3CFE00
3C7F00
3C3F80
3C1F80
3C0780
3C0380
3C8300
3CC600
FFFC00
FF7800
ENDCHAR

STARTCHAR agrave
ENCODING 224
SWIDTH 500 0
DWIDTH 17 0
BBX 15 23 1 0
BITMAP
0C00
0F00
0F80
03C0
00F0
0000
0000
0FE0
3FF0
31F8
20F8
0078
0078
01F8
1FF8
7C78
F878
F078
F078
F8F8
FF78
7E7E
3800
ENDCHAR

STARTCHAR aacute
ENCODING 225
SWIDTH 500 0
DWIDTH 17 0
BBX 15 23 1 0
BITMAP
0060
00F0
01E0
0380
0E00
0000
0000
0FE0
3FF0
31F8
20F8
0078
0078
01F8
1FF8
7C78
F878
F078
F078
F8F8
FF78
7E7E
3800
ENDCHAR

STARTCHAR acircumflex
ENCODING 226
SWIDTH 500 0
DWIDTH 17 0
BBX 15 23 1 0
BITMAP
0380
03C0
0760
0C60
1830
3008
0000
0FE0
3FF0
31F8
20F8
0078
0078
01F8
1FF8
7C78
F878
F078
F078
F8F8
FF78
7E7E
3800
ENDCHAR

STARTCHAR atilde
ENCODING 227
SWIDTH 500 0
DWIDTH 17 0
BBX 15 23 1 0
BITMAP
0004
1F0C
3FF8
21F0
4000
0000
0000
0FE0
3FF0
31F8
20F8
0078
0078
01F8
1FF8
7C78
F878
F078
F078
F8F8
FF78
7E7E
3800
ENDCHAR

STARTCHAR adieresis
ENCODING 228
SWIDTH 500 0
DWIDTH 17 0
BBX 15 22 1 0
BITMAP
1830
3C78
3C78
1830
0000
0000
0FE0
3FF0
31F8
20F8
0078
0078
01F8
1FF8
7C78
F878
F078
F078
F8F8
FF78
7E7E
3800
ENDCHAR

STARTCHAR aring
ENCODING 229
SWIDTH 500 0
DWIDTH 17 0
BBX 15 24 1 0
BITMAP
0380
07C0
0C60
0C60
0C60
07C0
0380
0000
0FE0
3FF0
31F8
20F8
0078
0078
01F8
1FF8
7C78
F878
F078
F078
F8F8
FF78
7E7E
3800
ENDCHAR

STARTCHAR ae
ENCODING 230
SWIDTH 778 0
DWIDTH 26 0
BBX 23 16 1 0
BITMAP
0FC7E0
3FF7F8
71FC3C
60F83C
00783E
00783E
00FFFE
1FFFFC
7C7800
787800
F07800
F07C00
F8FE00
FFBF8C
7F1FF8
3C07F0
ENDCHAR

STARTCHAR ccedilla
ENCODING 231
SWIDTH 444 0
DWIDTH 15 0
BBX 13 23 1 -7
BITMAP
03F8
0FF8
3C38
7810
7010
F000
F000
F000
F000
F800
F800
7C00
7F08
3FF8
0FE0
0100
0300
03E0
04F0
0070
0070
18E0
1FC0
ENDCHAR

STARTCHAR egrave
ENCODING 232
SWIDTH 500 0
DWIDTH 17 0
BBX 14 23 1 0
BITMAP
0800
1E00
0F00
0780
01C0
0060
0000
03E0
0FF0
3878
783C
783C
F03C
FFFC
FFF8
F800
F800
F800
7C00
7C00
3F1C
1FF8
0FE0
ENDCHAR

STARTCHAR eacute
ENCODING 233
SWIDTH 500 0
DWIDTH 17 0
BBX 14 23 1 0
BITMAP
0040
00E0
01E0
0780
0E00
1800
0000
03E0
0FF0
3878
783C
783C
F03C
FFFC
FFF8
F800
F800
F800
7C00
7C00
3F1C
1FF8
0FE0
ENDCHAR

STARTCHAR ecircumflex
ENCODING 234
SWIDTH 500 0
DWIDTH 17 0
BBX 14 23 1 0
BITMAP
0300
0780
07C0
0CE0
1860
3010
0000
03E0
0FF0
3878
783C
783C
F03C
FFFC
FFF8
F800
F800
F800
7C00
7C00
3F1C
1FF8
0FE0
ENDCHAR

STARTCHAR edieresis
ENCODING 235
SWIDTH 500 0
DWIDTH 17 0
BBX 14 21 1 0
BITMAP
1830
3C78
3C78
1830
0000
03E0
0FF0
3C78
783C
783C
783C
FFFC
FFF8
F800
F800
7800
7C00
7E00
3F1C
1FF8
07E0
ENDCHAR

STARTCHAR igrave
ENCODING 236
SWIDTH 333 0
DWIDTH 11 0
BBX 10 23 1 0
BITMAP
2000
7800
7800
1E00
0700
0180
0000
0200
7E00
7E00
1E00
1E00
1E00
1E00
1E00
1E00
1E00
1E00
1E00
1E00
1E00
FFC0
FFC0
ENDCHAR

STARTCHAR iacute
ENCODING 237
SWIDTH 333 0
DWIDTH 11 0
BBX 10 23 1 0
BITMAP
0100
0780
0F80
1E00
3800
6000
0000
0200
7E00
7E00
1E00
1E00
1E00
1E00
1E00
1E00
1E00
1E00
1E00
1E00
1E00
FFC0
FFC0
ENDCHAR

STARTCHAR icircumflex
ENCODING 238
SWIDTH 333 0
DWIDTH 11 0
BBX 10 23 1 0
BITMAP
0C00
1E00
3B00
3380
6180
C040
0000
0200
7E00
7E00
1E00
1E00
1E00
1E00
1E00
1E00
1E00
1E00
1E00
1E00
1E00
FFC0
FFC0
ENDCHAR

STARTCHAR idieresis
ENCODING 239
SWIDTH 333 0
DWIDTH 11 0
BBX 11 21 0 0
BITMAP
60C0
F1E0
F1E0
60C0
0000
0100
3F00
3F00
0F00
0F00
0F00
0F00
0F00
0F00
0F00
0F00
0F00
0F00
0F00
7FE0
7FE0
ENDCHAR

STARTCHAR gbreve
ENCODING 240
SWIDTH 556 0
DWIDTH 18 0
BBX 18 31 1 -9
BITMAP
080400
0C0C00
061800
07F800
01E000
000000
03E000
1FFFC0
3C7F80
783C00
783C00
783C00
783C00
783800
3C7800
1FF000
078000
180000
380000
3FFF00
3FFF00
3FFF80
180F80
700780
E00780
E00700
E00700
F00E00
781C00
3FF800
0FC000
ENDCHAR

STARTCHAR ntilde
ENCODING 241
SWIDTH 611 0
DWIDTH 20 0
BBX 18 23 1 0
BITMAP
000200
07C600
0FFC00
18F800
100000
000000
000000
0C7C00
FCFE00
FDFF00
3E1F00
3C0F00
3C0F00
3C0F00
3C0F00
3C0F00
3C0F00
3C0F00
3C0F00
3C0F00
3C0F00
FF8FC0
FF8FC0
ENDCHAR

STARTCHAR ograve
ENCODING 242
SWIDTH 556 0
DWIDTH 18 0
BBX 15 23 2 0
BITMAP
0800
0E00
0F00
0380
01C0
0060
0000
07E0
1FF8
787C
783E
F03E
F01E
F01E
F01E
F01E
F01E
F81E
F81E
783C
7C38
1FF0
07C0
ENDCHAR

STARTCHAR oacute
ENCODING 243
SWIDTH 556 0
DWIDTH 18 0
BBX 15 23 2 0
BITMAP
0040
00E0
01E0
03C0
0700
0C00
0000
07E0
1FF8
787C
783E
F03E
F01E
F01E
F01E
F01E
F01E
F81E
F81E
783C
7C38
1FF0
07C0
ENDCHAR

STARTCHAR ocircumflex
ENCODING 244
SWIDTH 556 0
DWIDTH 18 0
BBX 15 23 2 0
BITMAP
0180
0380
07C0
0E60
1830
3018
0000
07E0
1FF8
787C
783E
F03E
F01E
F01E
F01E
F01E
F01E
F81E
F81E
783C
7C38
1FF0
07C0
ENDCHAR

STARTCHAR otilde
ENCODING 245
SWIDTH 556 0
DWIDTH 18 0
BBX 15 22 2 0
BITMAP
000C
1F08
3FF8
21F0
0000
0000
07E0
1FF8
787C
783E
F03E
F01E
F01E
F01E
F01E
F01E
F81E
F81E
783C
7C38
1FF0
07C0
ENDCHAR

STARTCHAR odieresis
ENCODING 246
SWIDTH 556 0
DWIDTH 18 0
BBX 15 21 2 0
BITMAP
1830
3C78
3C78
1830
0000
07E0
1FF8
787C
783E
F03E
F01E
F01E
F01E
F01E
F01E
F81E
F81E
783C
7C38
1FF0
07C0
ENDCHAR

STARTCHAR divide
ENCODING 247
SWIDTH 606 0
DWIDTH 20 0
BBX 16 15 2 4
BITMAP
03C0
03C0
03C0
03C0
0000
0000
FFFF
FFFF
FFFF
0000
0000
03C0
03C0
03C0
03C0
ENDCHAR

STARTCHAR oslash
ENCODING 248
SWIDTH 556 0
DWIDTH 18 0
BBX 17 18 1 -1
BITMAP
000080
03E180
1FFF00
3C3E00
3C1F00
781F00
783F00
786F00
78CF00
798F00
7B0F00
7E0F00
7C0F00
3C1E00
3E1C00
EFF800
C3E000
400000
ENDCHAR

STARTCHAR ugrave
ENCODING 249
SWIDTH 611 0
DWIDTH 20 0
BBX 18 22 1 0
BITMAP
070000
078000
01C000
00E000
003800
000000
040100
FC3F00
FC7F00
3C0F00
3C0F00
3C0F00
3C0F00
3C0F00
3C0F00
3C0F00
3C0F00
3C1F00
3E3F00
3FEF00
1FCFC0
0F8FC0
ENDCHAR

STARTCHAR uacute
ENCODING 250
SWIDTH 611 0
DWIDTH 20 0
BBX 18 22 1 0
BITMAP
003800
007800
00E000
01C000
070000
000000
040100
FC3F00
FC7F00
3C0F00
3C0F00
3C0F00
3C0F00
3C0F00
3C0F00
3C0F00
3C0F00
3C1F00
3E3F00
3FEF00
1FCFC0
0F8FC0
ENDCHAR

STARTCHAR ucircumflex
ENCODING 251
SWIDTH 611 0
DWIDTH 20 0
BBX 18 23 1 0
BITMAP
00C000
01E000
03B000
073800
060800
080400
000000
040100
FC3F00
FC7F00
3C0F00
3C0F00
3C0F00
3C0F00
3C0F00
3C0F00
3C0F00
3C0F00
3C1F00
3E3F00
3FEF00
1FCFC0
0F8FC0
ENDCHAR

STARTCHAR udieresis
ENCODING 252
SWIDTH 611 0
DWIDTH 20 0
BBX 18 21 1 0
BITMAP
060C00
0F1E00
0F1E00
060C00
000000
040100
FC3F00
FC7F00
3C0F00
3C0F00
3C0F00
3C0F00
3C0F00
3C0F00
3C0F00
3C0F00
3C1F00
3E3F00
3FEF00
1FCFC0
0F8FC0
ENDCHAR

STARTCHAR dotlessi
ENCODING 253
SWIDTH 333 0
DWIDTH 11 0
BBX 10 16 1 0
BITMAP
0200
1E00
7E00
1E00
1E00
1E00
1E00
1E00
1E00
1E00
1E00
1E00
1E00
1E00
3F00
FFC0
ENDCHAR

STARTCHAR scedilla
ENCODING 254
SWIDTH 444 0
DWIDTH 15 0
BBX 12 23 1 -7
BITMAP
0F80
3FE0
7060
E040
E040
F000
FF00
FFC0
7FE0
1FF0
01F0
80F0
80E0
C0E0
E1C0
FF80
0C00
0800
1F00
0380
0180
4380
7F00
ENDCHAR

STARTCHAR ydieresis
ENCODING 255
SWIDTH 556 0
DWIDTH 18 0
BBX 17 30 1 -9
BITMAP
0C1800
1E3C00
1E3C00
0C1800
000000
000000
FF1F80
7E0F00
3C0600
3E0600
1E0C00
1E0C00
1F1800
0F1800
0FB800
07B000
07B000
07E000
03E000
03C000
01C000
01C000
018000
018000
030000
030000
460000
7E0000
FC0000
780000
ENDCHAR
ENDFONT
